<svg xmlns="http://www.w3.org/2000/svg" width="29" height="28" viewBox="0 0 29 28">
  <g id="Gruppe_3" data-name="Gruppe 3" transform="translate(0 0.001)">
    <ellipse id="Ellipse_1" data-name="Ellipse 1" cx="14.5" cy="14" rx="14.5" ry="14" transform="translate(0 -0.001)" fill="#566966"/>
    <path id="Pfad_4" data-name="Pfad 4" d="M.805,0V-1.121l3.959-4.4A11.1,11.1,0,0,0,6.2-7.4a2.964,2.964,0,0,0,.378-1.428,2.256,2.256,0,0,0-.531-1.523,1.759,1.759,0,0,0-1.4-.618,2.394,2.394,0,0,0-1.843.639,2.572,2.572,0,0,0-.589,1.81H.647l-.017-.05A3.406,3.406,0,0,1,1.664-11.2,4.061,4.061,0,0,1,4.648-12.26a3.551,3.551,0,0,1,2.6.95,3.248,3.248,0,0,1,.967,2.42,3.847,3.847,0,0,1-.585,1.976A12.872,12.872,0,0,1,5.985-4.781L2.806-1.32l.017.042H7.114l.133-1.386H8.633V0Z" transform="translate(10 19.999)" fill="#fff"/>
  </g>
</svg>
