<svg id="Gruppe_4" data-name="Gruppe 4" xmlns="http://www.w3.org/2000/svg" width="29" height="29" viewBox="0 0 29 29">
  <path id="Pfad_1" data-name="Pfad 1" d="M14.5,0A14.5,14.5,0,1,1,0,14.5,14.5,14.5,0,0,1,14.5,0Z" fill="#566966"/>
  <path id="Pfad_5" data-name="Pfad 5" d="M3.013-6.8H4.441a1.9,1.9,0,0,0,1.54-.544,2.3,2.3,0,0,0,.452-1.515,2.2,2.2,0,0,0-.515-1.577,2,2,0,0,0-1.519-.54,2.1,2.1,0,0,0-1.531.56,1.982,1.982,0,0,0-.577,1.49H.722l-.017-.05A2.928,2.928,0,0,1,1.7-11.3a3.814,3.814,0,0,1,2.7-.959,3.857,3.857,0,0,1,2.673.892,3.238,3.238,0,0,1,1,2.544,2.843,2.843,0,0,1-.452,1.49A2.854,2.854,0,0,1,6.259-6.2,2.657,2.657,0,0,1,7.8-5.08a3.291,3.291,0,0,1,.452,1.71,3.27,3.27,0,0,1-1.083,2.6A4.055,4.055,0,0,1,4.4.174,4.155,4.155,0,0,1,1.66-.718,2.866,2.866,0,0,1,.623-3.138l.025-.05H2.208a2.012,2.012,0,0,0,.585,1.519A2.217,2.217,0,0,0,4.4-1.1a2.255,2.255,0,0,0,1.627-.564,2.206,2.206,0,0,0,.589-1.668,2.276,2.276,0,0,0-.523-1.652A2.236,2.236,0,0,0,4.441-5.52H3.013Z" transform="translate(10 21)" fill="#fff"/>
</svg>
