<svg xmlns="http://www.w3.org/2000/svg" width="372.168" height="68.064" viewBox="0 0 372.168 68.064">
  <g id="Gruppe_1443" data-name="Gruppe 1443" transform="translate(-519.988 -1588.428)">
    <path id="Pfad_4051" data-name="Pfad 4051" d="M19.872,15.832H7.992v6.3H18.108V26.6H7.992V37h-5V11.368H19.872ZM42.984,20.98q.036,1.008.036,3.2t-.036,3.2a24.023,24.023,0,0,1-.252,2.5,7.708,7.708,0,0,1-.774,2.538,8.426,8.426,0,0,1-1.494,1.98,9.394,9.394,0,0,1-6.912,2.808A9.437,9.437,0,0,1,26.6,34.408a8.171,8.171,0,0,1-1.476-1.962,7.87,7.87,0,0,1-.756-2.574q-.216-1.548-.252-2.484t-.036-3.2q0-2.268.036-3.2t.252-2.484a7.87,7.87,0,0,1,.756-2.574A8.171,8.171,0,0,1,26.6,13.96a9.437,9.437,0,0,1,6.948-2.808,9.394,9.394,0,0,1,6.912,2.808,8.426,8.426,0,0,1,1.494,1.98,7.708,7.708,0,0,1,.774,2.538A24.023,24.023,0,0,1,42.984,20.98Zm-5.22,8.208a33.069,33.069,0,0,0,.252-5,32.677,32.677,0,0,0-.252-4.986,4.36,4.36,0,0,0-1.008-2.214,4.027,4.027,0,0,0-3.2-1.368,4.069,4.069,0,0,0-3.24,1.368,4.232,4.232,0,0,0-.99,2.2,35.115,35.115,0,0,0-.234,5,35.115,35.115,0,0,0,.234,5,4.232,4.232,0,0,0,.99,2.2,4.069,4.069,0,0,0,3.24,1.368,4.027,4.027,0,0,0,3.2-1.368A4.344,4.344,0,0,0,37.764,29.188ZM66.2,37H49.572V11.368h5V32.536H66.2ZM89.028,26.488A15.881,15.881,0,0,1,88.47,31.1a8.08,8.08,0,0,1-1.89,3.2,9.75,9.75,0,0,1-7.236,2.916,9.394,9.394,0,0,1-6.912-2.808,7.364,7.364,0,0,1-2.088-3.852,34.973,34.973,0,0,1-.432-6.372,34.973,34.973,0,0,1,.432-6.372,7.364,7.364,0,0,1,2.088-3.852,10.264,10.264,0,0,1,13.536-.5,9.765,9.765,0,0,1,3.024,5.9h-5.04q-.936-3.744-4.608-3.744a4.027,4.027,0,0,0-3.2,1.368,4.871,4.871,0,0,0-.99,2.25,33.866,33.866,0,0,0-.234,4.95,34.609,34.609,0,0,0,.234,5.022,4.632,4.632,0,0,0,.99,2.214,3.945,3.945,0,0,0,3.2,1.332,4.621,4.621,0,0,0,3.564-1.44,5.041,5.041,0,0,0,1.152-3.42V26.92H79.344V22.744h9.684Zm23,10.512H95.148V11.368h16.884v4.464h-11.88v6.012h10.116v4.464H100.152v6.228h11.88Zm25.956,0h-4.464L123.372,21.268V37h-5V11.368h4.464l10.152,15.7v-15.7h5Zm33.768-7.56a6.809,6.809,0,0,1-2.682,5.706,10.84,10.84,0,0,1-6.822,2.07,16.189,16.189,0,0,1-5.292-.774,10.677,10.677,0,0,1-4.068-2.61l3.24-3.24a8.38,8.38,0,0,0,6.192,2.16q4.536,0,4.536-3.168a2.845,2.845,0,0,0-.792-2.16,4.435,4.435,0,0,0-2.268-.9l-3.1-.432a8.657,8.657,0,0,1-4.968-2.124,6.811,6.811,0,0,1-1.836-5.04,7.172,7.172,0,0,1,2.412-5.634,9.457,9.457,0,0,1,6.516-2.142,11.419,11.419,0,0,1,8.28,2.988l-3.168,3.132a7.287,7.287,0,0,0-5.256-1.764,4.257,4.257,0,0,0-2.934.918,2.981,2.981,0,0,0-1.026,2.322,2.425,2.425,0,0,0,.756,1.836,4.329,4.329,0,0,0,2.376,1.008l3.024.432a9.036,9.036,0,0,1,4.9,1.98A7.126,7.126,0,0,1,171.756,29.44ZM182.916,37h-5V11.368h5Zm24.3,0H190.332V11.368h16.884v4.464h-11.88v6.012h10.116v4.464H195.336v6.228h11.88Zm34.6-8.784a8.452,8.452,0,0,1-2.7,6.5,10.308,10.308,0,0,1-13.464,0,8.452,8.452,0,0,1-2.7-6.5V11.368h5V28.036a4.835,4.835,0,0,0,1.188,3.456,4.239,4.239,0,0,0,3.24,1.26,4.3,4.3,0,0,0,3.258-1.26,4.792,4.792,0,0,0,1.206-3.456V11.368h4.968ZM268.452,37h-4.464L253.836,21.268V37h-5V11.368H253.3l10.152,15.7v-15.7h5Zm23.976-7.56a6.809,6.809,0,0,1-2.682,5.706,10.84,10.84,0,0,1-6.822,2.07,16.189,16.189,0,0,1-5.292-.774,10.677,10.677,0,0,1-4.068-2.61l3.24-3.24A8.38,8.38,0,0,0,283,32.752q4.536,0,4.536-3.168a2.845,2.845,0,0,0-.792-2.16,4.435,4.435,0,0,0-2.268-.9l-3.1-.432a8.657,8.657,0,0,1-4.968-2.124,6.811,6.811,0,0,1-1.836-5.04,7.172,7.172,0,0,1,2.412-5.634,9.457,9.457,0,0,1,6.516-2.142,11.419,11.419,0,0,1,8.28,2.988l-3.168,3.132a7.287,7.287,0,0,0-5.256-1.764,4.257,4.257,0,0,0-2.934.918,2.981,2.981,0,0,0-1.026,2.322,2.425,2.425,0,0,0,.756,1.836,4.329,4.329,0,0,0,2.376,1.008l3.024.432a9.036,9.036,0,0,1,4.9,1.98A7.126,7.126,0,0,1,292.428,29.44ZM328.176,37h-5.22l-1.512-4.536h-9.108L310.788,37h-5.22l9.324-25.632h3.924Zm-8.064-8.748-3.132-9.324-3.24,9.324Zm31.14-.036a8.452,8.452,0,0,1-2.7,6.5,10.308,10.308,0,0,1-13.464,0,8.452,8.452,0,0,1-2.7-6.5V11.368h5V28.036a4.835,4.835,0,0,0,1.188,3.456,4.239,4.239,0,0,0,3.24,1.26,4.3,4.3,0,0,0,3.258-1.26,4.792,4.792,0,0,0,1.206-3.456V11.368h4.968Zm23.9-12.384h-11.88v6.3h10.116V26.6H363.276V37h-5V11.368h16.884ZM7.992,79h-5V53.368h5Zm27.036,0H30.564L20.412,63.268V79h-5V53.368h4.464l10.152,15.7v-15.7h5ZM59,71.44a6.809,6.809,0,0,1-2.682,5.706,10.84,10.84,0,0,1-6.822,2.07,16.189,16.189,0,0,1-5.292-.774,10.677,10.677,0,0,1-4.068-2.61l3.24-3.24a8.38,8.38,0,0,0,6.192,2.16q4.536,0,4.536-3.168a2.845,2.845,0,0,0-.792-2.16,4.435,4.435,0,0,0-2.268-.9l-3.1-.432a8.657,8.657,0,0,1-4.968-2.124,6.811,6.811,0,0,1-1.836-5.04,7.172,7.172,0,0,1,2.412-5.634,9.457,9.457,0,0,1,6.516-2.142,11.419,11.419,0,0,1,8.28,2.988l-3.168,3.132a7.287,7.287,0,0,0-5.256-1.764A4.257,4.257,0,0,0,47,58.426a2.981,2.981,0,0,0-1.026,2.322,2.425,2.425,0,0,0,.756,1.836A4.329,4.329,0,0,0,49.1,63.592l3.024.432a9.036,9.036,0,0,1,4.9,1.98A7.126,7.126,0,0,1,59,71.44ZM81.648,57.832h-6.7V79h-5V57.832h-6.7V53.368h18.4ZM104.8,79h-5.22l-1.512-4.536H88.956L87.408,79h-5.22l9.324-25.632h3.924Zm-8.064-8.748L93.6,60.928l-3.24,9.324ZM127.3,68.488a15.881,15.881,0,0,1-.558,4.608,8.081,8.081,0,0,1-1.89,3.2,9.75,9.75,0,0,1-7.236,2.916,9.394,9.394,0,0,1-6.912-2.808,7.364,7.364,0,0,1-2.088-3.852,34.973,34.973,0,0,1-.432-6.372,34.973,34.973,0,0,1,.432-6.372A7.364,7.364,0,0,1,110.7,55.96a10.264,10.264,0,0,1,13.536-.5,9.765,9.765,0,0,1,3.024,5.9h-5.04q-.936-3.744-4.608-3.744a4.027,4.027,0,0,0-3.2,1.368,4.871,4.871,0,0,0-.99,2.25,33.866,33.866,0,0,0-.234,4.95,34.609,34.609,0,0,0,.234,5.022,4.631,4.631,0,0,0,.99,2.214,3.945,3.945,0,0,0,3.2,1.332,4.621,4.621,0,0,0,3.564-1.44,5.041,5.041,0,0,0,1.152-3.42V68.92h-4.716V64.744H127.3ZM152.82,79h-5.8l-5-10.224h-3.6V79h-5V53.368H143.46a8.16,8.16,0,0,1,6.066,2.268,7.615,7.615,0,0,1,2.25,5.58,6.808,6.808,0,0,1-1.332,4.284,7.217,7.217,0,0,1-3.348,2.448Zm-7.056-15.336a3.477,3.477,0,0,0,0-4.9,3.708,3.708,0,0,0-2.628-.936H138.42V64.6h4.716A3.708,3.708,0,0,0,145.764,63.664ZM178.2,79h-5.22l-1.512-4.536H162.36L160.812,79h-5.22l9.324-25.632h3.924Zm-8.064-8.748L167,60.928l-3.24,9.324ZM206.028,79h-5V64.06l-4.9,9.72h-3.384l-4.932-9.72V79h-5V53.368h4.932l6.7,13.86,6.66-13.86h4.932Z" transform="translate(517 1577.276)" fill="#4a6c56"/>
    <g id="Gruppe_1378" data-name="Gruppe 1378" transform="translate(738.5 1651.008) rotate(-90)">
      <line id="Linie_2" data-name="Linie 2" y2="23" transform="translate(7.75)" fill="none" stroke="#4a6c56" stroke-linecap="round" stroke-width="3"/>
      <line id="Linie_3" data-name="Linie 3" y1="7.5" x2="7.5" transform="translate(7.75 16.5)" fill="none" stroke="#4a6c56" stroke-linecap="round" stroke-width="3"/>
      <line id="Linie_4" data-name="Linie 4" x1="7.5" y1="7.5" transform="translate(0 16.5)" fill="none" stroke="#4a6c56" stroke-linecap="round" stroke-width="3"/>
    </g>
  </g>
</svg>
