<svg xmlns="http://www.w3.org/2000/svg" width="111.293" height="64.641" viewBox="0 0 111.293 64.641">
  <g id="Gruppe_11" data-name="Gruppe 11" transform="translate(-403.817 -2428.18)">
    <g id="Gruppe_7" data-name="Gruppe 7" transform="translate(403.817 2428.18)">
      <path id="Pfad_3815" data-name="Pfad 3815" d="M138.67,126.062c.071-4.553-2.675-8.193-8.25-8.193-6.592,0-8.3,9.743-8.31,15.789s1.638,15.788,8.229,15.788c5.576,0,8.342-3.645,8.3-8.192h9.888c-.445,10.824-8.247,14.892-18.2,14.892-12.528,0-18.138-9.869-18.107-22.488s5.69-22.487,18.219-22.487c9.951,0,17.734,4.066,18.125,14.891Z" transform="translate(-112.217 -111.171)" fill="#0098dd"/>
      <path id="Pfad_3816" data-name="Pfad 3816" d="M519.21,126.062c.073-4.553-2.675-8.193-8.25-8.193-6.595,0-8.295,9.743-8.312,15.789s1.64,15.788,8.232,15.788c5.578,0,8.339-3.645,8.292-8.192h9.892c-.446,10.824-8.25,14.892-18.2,14.892-12.528,0-18.136-9.869-18.1-22.488s5.686-22.487,18.213-22.487c9.951,0,17.736,4.066,18.128,14.891Z" transform="translate(-417.81 -111.171)" fill="#0098dd"/>
      <path id="Pfad_3817" data-name="Pfad 3817" d="M321.108,113.736h9.744c9.674,0,21.22-.317,21.22,11.818,0,5.126-3.547,9.379-9.287,10.131v.121c2.45.188,3.871,2.568,4.773,4.506l7.227,17.073H344.72L339.3,143.751c-1.293-3.255-2.453-4.5-6.257-4.5h-2.9v18.136h-9.031Zm9.031,18.632h2.969c4.452,0,9.546-.623,9.546-6.068,0-5.248-5.031-5.688-9.546-5.688h-2.969Z" transform="translate(-279.965 -113.23)" fill="#0098dd"/>
    </g>
    <g id="Gruppe_10" data-name="Gruppe 10" transform="translate(414.979 2481.448)">
      <g id="Gruppe_9" data-name="Gruppe 9">
        <path id="Pfad_3818" data-name="Pfad 3818" d="M172.354,392.643l-3.467-10.62h1.481l1.654,5.231c.457,1.434.851,2.726,1.135,3.971h.032c.3-1.229.741-2.568,1.213-3.955l1.8-5.247h1.465l-3.8,10.62Z" transform="translate(-168.887 -381.944)" fill="#384759" stroke="#384759" stroke-miterlimit="10" stroke-width="1"/>
        <path id="Pfad_3819" data-name="Pfad 3819" d="M248.786,387.664h-4.128v3.829h4.6v1.15h-5.972v-10.62h5.736v1.15h-4.365v3.356h4.128Z" transform="translate(-228.633 -381.944)" fill="#384759" stroke="#384759" stroke-miterlimit="10" stroke-width="1"/>
        <path id="Pfad_3820" data-name="Pfad 3820" d="M306.647,392.643v-10.62h1.5l3.4,5.373a30.056,30.056,0,0,1,1.907,3.451l.031-.016c-.126-1.418-.158-2.71-.158-4.365v-4.443h1.292v10.62h-1.387l-3.372-5.389a33.7,33.7,0,0,1-1.985-3.545l-.047.016c.079,1.34.11,2.616.11,4.381v4.538Z" transform="translate(-279.514 -381.944)" fill="#384759" stroke="#384759" stroke-miterlimit="10" stroke-width="1"/>
        <path id="Pfad_3821" data-name="Pfad 3821" d="M380.356,383.189h-3.23v-1.166h7.863v1.166h-3.246v9.454h-1.387Z" transform="translate(-336.111 -381.944)" fill="#384759" stroke="#384759" stroke-miterlimit="10" stroke-width="1"/>
        <path id="Pfad_3822" data-name="Pfad 3822" d="M448.353,382.023v6.287c0,2.379,1.056,3.388,2.474,3.388,1.576,0,2.584-1.04,2.584-3.388v-6.287H454.8v6.192c0,3.262-1.717,4.6-4.018,4.6-2.174,0-3.813-1.245-3.813-4.538v-6.256Z" transform="translate(-392.195 -381.944)" fill="#384759" stroke="#384759" stroke-miterlimit="10" stroke-width="1"/>
        <path id="Pfad_3823" data-name="Pfad 3823" d="M522.8,381.843a14.3,14.3,0,0,1,2.631-.221,4.343,4.343,0,0,1,3.073.867,2.645,2.645,0,0,1,.835,2.017,2.789,2.789,0,0,1-2,2.71v.047a2.647,2.647,0,0,1,1.56,2.143,16.88,16.88,0,0,0,.82,2.915H528.3a13.782,13.782,0,0,1-.709-2.537c-.315-1.466-.882-2.017-2.127-2.064h-1.292v4.6H522.8Zm1.371,4.838h1.4c1.465,0,2.4-.8,2.4-2.017,0-1.371-.993-1.97-2.442-1.985a5.659,5.659,0,0,0-1.355.126Z" transform="translate(-453.097 -381.622)" fill="#384759" stroke="#384759" stroke-miterlimit="10" stroke-width="1"/>
        <path id="Pfad_3824" data-name="Pfad 3824" d="M595.343,387.664h-4.128v3.829h4.6v1.15h-5.972v-10.62h5.736v1.15h-4.365v3.356h4.128Z" transform="translate(-506.932 -381.944)" fill="#384759" stroke="#384759" stroke-miterlimit="10" stroke-width="1"/>
      </g>
    </g>
  </g>
</svg>
