<svg id="instagram-seeklogo.com" xmlns="http://www.w3.org/2000/svg" width="75.242" height="75.242" viewBox="0 0 75.242 75.242">
  <path id="Pfad_3812" data-name="Pfad 3812" d="M37.621,6.779c10.045,0,11.235.038,15.2.219a20.823,20.823,0,0,1,6.986,1.3,11.658,11.658,0,0,1,4.326,2.814,11.656,11.656,0,0,1,2.814,4.326,20.819,20.819,0,0,1,1.3,6.986c.181,3.967.219,5.157.219,15.2s-.038,11.235-.219,15.2a20.819,20.819,0,0,1-1.3,6.986,12.458,12.458,0,0,1-7.14,7.14,20.819,20.819,0,0,1-6.986,1.3c-3.966.181-5.156.219-15.2.219s-11.236-.038-15.2-.219a20.817,20.817,0,0,1-6.986-1.3,11.655,11.655,0,0,1-4.326-2.814,11.655,11.655,0,0,1-2.814-4.326A20.818,20.818,0,0,1,7,52.823c-.181-3.967-.219-5.157-.219-15.2s.038-11.235.219-15.2a20.818,20.818,0,0,1,1.3-6.986,11.655,11.655,0,0,1,2.814-4.326,11.657,11.657,0,0,1,4.326-2.814A20.821,20.821,0,0,1,22.419,7c3.967-.181,5.157-.219,15.2-.219m0-6.779C27.4,0,26.123.043,22.11.226a27.614,27.614,0,0,0-9.132,1.749A18.441,18.441,0,0,0,6.314,6.314a18.441,18.441,0,0,0-4.339,6.663A27.614,27.614,0,0,0,.226,22.11C.043,26.123,0,27.4,0,37.621s.043,11.5.226,15.511a27.614,27.614,0,0,0,1.749,9.132,18.442,18.442,0,0,0,4.339,6.663,18.44,18.44,0,0,0,6.663,4.339,27.614,27.614,0,0,0,9.132,1.749c4.013.183,5.294.226,15.511.226s11.5-.043,15.511-.226a27.614,27.614,0,0,0,9.132-1.749,19.238,19.238,0,0,0,11-11,27.614,27.614,0,0,0,1.749-9.132c.183-4.013.226-5.294.226-15.511s-.043-11.5-.226-15.511a27.614,27.614,0,0,0-1.749-9.132,18.441,18.441,0,0,0-4.339-6.663,18.441,18.441,0,0,0-6.663-4.339A27.614,27.614,0,0,0,53.132.226C49.12.043,47.838,0,37.621,0Zm0,18.3A19.319,19.319,0,1,0,56.94,37.621,19.319,19.319,0,0,0,37.621,18.3Zm0,31.859a12.54,12.54,0,1,1,12.54-12.54A12.541,12.541,0,0,1,37.621,50.162Zm24.6-32.623A4.515,4.515,0,1,1,57.7,13.024,4.515,4.515,0,0,1,62.218,17.539Z" transform="translate(0 0)" fill="#4a6c56"/>
</svg>
