<svg xmlns="http://www.w3.org/2000/svg" width="25" height="25" viewBox="0 0 25 25">
  <g id="instagram-seeklogo.com" transform="translate(527 -200)">
    <path id="Pfad_3812" data-name="Pfad 3812" d="M12.5,2.252c3.338,0,3.733.013,5.051.073a6.919,6.919,0,0,1,2.321.43,3.873,3.873,0,0,1,1.437.935,3.873,3.873,0,0,1,.935,1.437,6.917,6.917,0,0,1,.43,2.321c.06,1.318.073,1.713.073,5.051s-.013,3.733-.073,5.051a6.917,6.917,0,0,1-.43,2.321,4.139,4.139,0,0,1-2.372,2.372,6.917,6.917,0,0,1-2.321.43c-1.318.06-1.713.073-5.051.073s-3.733-.013-5.051-.073a6.917,6.917,0,0,1-2.321-.43,3.872,3.872,0,0,1-1.437-.935,3.873,3.873,0,0,1-.935-1.437,6.917,6.917,0,0,1-.43-2.321c-.06-1.318-.073-1.713-.073-5.051s.013-3.733.073-5.051a6.917,6.917,0,0,1,.43-2.321,3.873,3.873,0,0,1,.935-1.437,3.873,3.873,0,0,1,1.437-.935,6.918,6.918,0,0,1,2.321-.43c1.318-.06,1.713-.073,5.051-.073M12.5,0C9.105,0,8.68.014,7.346.075A9.175,9.175,0,0,0,4.312.656,6.127,6.127,0,0,0,2.1,2.1,6.127,6.127,0,0,0,.656,4.312,9.175,9.175,0,0,0,.075,7.346C.014,8.68,0,9.105,0,12.5s.014,3.82.075,5.154a9.175,9.175,0,0,0,.581,3.034A6.128,6.128,0,0,0,2.1,22.9a6.127,6.127,0,0,0,2.214,1.442,9.175,9.175,0,0,0,3.034.581C8.68,24.986,9.105,25,12.5,25s3.821-.014,5.154-.075a9.175,9.175,0,0,0,3.034-.581,6.392,6.392,0,0,0,3.656-3.656,9.175,9.175,0,0,0,.581-3.034c.061-1.333.075-1.759.075-5.154s-.014-3.821-.075-5.154a9.175,9.175,0,0,0-.581-3.034A6.127,6.127,0,0,0,22.9,2.1,6.127,6.127,0,0,0,20.688.656,9.175,9.175,0,0,0,17.654.075C16.32.014,15.895,0,12.5,0Zm0,6.081A6.419,6.419,0,1,0,18.919,12.5,6.419,6.419,0,0,0,12.5,6.081Zm0,10.586A4.167,4.167,0,1,1,16.667,12.5,4.167,4.167,0,0,1,12.5,16.667ZM20.672,5.827a1.5,1.5,0,1,1-1.5-1.5A1.5,1.5,0,0,1,20.672,5.827Z" transform="translate(-527 200)" fill="#4a6c56"/>
  </g>
</svg>
