<svg id="Group_25" data-name="Group 25" xmlns="http://www.w3.org/2000/svg" width="204.262" height="52.445" viewBox="0 0 204.262 52.445">
  <path id="Fill_1" data-name="Fill 1" d="M0,0V29.724H18.709V24.211H6.657V17.155h10.79V11.686H6.657V5.512H18.1V0Z" transform="translate(0 16.202)" fill="#383837"/>
  <g id="Group_24" data-name="Group 24" transform="translate(20.23)">
    <path id="Fill_2" data-name="Fill 2" d="M7.179,0l2.872,10.011a50.373,50.373,0,0,1,1.218,5.248H11.4c.348-1.764.7-3.4,1.174-5.248L15.315,0h6.961L14.358,21.565H7.744L0,0Z" transform="translate(0 24.361)" fill="#383837"/>
    <path id="Fill_4" data-name="Fill 4" d="M11.355,22.491a14.3,14.3,0,0,1-4.821-.767,9.692,9.692,0,0,1-3.565-2.193A10.918,10.918,0,0,1,0,11.511,13.573,13.573,0,0,1,.639,7.405,11.5,11.5,0,0,1,2.6,3.7,10.051,10.051,0,0,1,10.746,0a9.906,9.906,0,0,1,4.382.931,8.061,8.061,0,0,1,2.938,2.448,12.385,12.385,0,0,1,2.164,7.381,16.185,16.185,0,0,1-.217,2.646H6.308A3.9,3.9,0,0,0,8.234,16.5a7.725,7.725,0,0,0,4.079,1.009,18.648,18.648,0,0,0,5.874-.882l.87,4.542A20.807,20.807,0,0,1,11.355,22.491Zm-1-18.037a3.66,3.66,0,0,0-3.024,1.5A5.792,5.792,0,0,0,6.265,8.82H14.1a5.523,5.523,0,0,0-.729-2.795A3.32,3.32,0,0,0,10.355,4.455Z" transform="translate(23.45 23.875)" fill="#383837"/>
    <path id="Fill_6" data-name="Fill 6" d="M.174,7.365C.174,4.675.087,2.381,0,.485H5.743l.3,2.955h.131A7.764,7.764,0,0,1,12.748,0c4.351,0,7.614,2.911,7.614,9.261V22.05H13.748V10.1c0-2.778-.957-4.674-3.35-4.674a3.538,3.538,0,0,0-3.35,2.513,4.662,4.662,0,0,0-.261,1.676V22.05H.174Z" transform="translate(47.466 23.875)" fill="#383837"/>
    <path id="Fill_8" data-name="Fill 8" d="M9.311,0V6.174h4.742v4.939H9.311v7.806c0,2.6.609,3.793,2.611,3.793a10.684,10.684,0,0,0,1.957-.176l.044,5.072a12.808,12.808,0,0,1-4.307.573,6.827,6.827,0,0,1-4.96-1.852c-1.218-1.279-1.827-3.352-1.827-6.395v-8.82H0V6.174H2.828V1.5Z" transform="translate(70.959 18.187)" fill="#383837"/>
    <path id="Fill_10" data-name="Fill 10" d="M0,4.454H11.4V0H0Z" transform="translate(87.491 32.122)" fill="#383837"/>
    <path id="Fill_12" data-name="Fill 12" d="M7.179,30.253A49.969,49.969,0,0,1,0,29.812V.618A51.912,51.912,0,0,1,8.572,0c4.275,0,6.621.454,8.658,1.676A6.464,6.464,0,0,1,20.754,7.5a6.292,6.292,0,0,1-1.175,3.7,7.679,7.679,0,0,1-3.655,2.646v.089A8.254,8.254,0,0,1,20.1,16.5a7.265,7.265,0,0,1,1.659,4.752,7.955,7.955,0,0,1-3.045,6.307,10.938,10.938,0,0,1-4.378,1.99A30.634,30.634,0,0,1,7.179,30.253ZM6.57,16.8v8.379a20.88,20.88,0,0,0,2.567.088,7.278,7.278,0,0,0,3.954-.965,3.711,3.711,0,0,0,1.7-3.313,3.569,3.569,0,0,0-1.74-3.219,8.067,8.067,0,0,0-4.22-.97ZM9.4,4.9a17.694,17.694,0,0,0-2.828.176V12H8.746C12.1,12,14.1,10.627,14.1,8.335,14.1,6.117,12.428,4.9,9.4,4.9Z" transform="translate(103.066 15.981)" fill="#383837"/>
    <path id="Fill_13" data-name="Fill 13" d="M7.57,0,9.659,3.572c.609,1.1,1.175,2.205,1.74,3.219h.087c.565-1.146,1.088-2.249,1.653-3.307L15.011,0h7.179l-7,10.275,7.092,11.289H14.793l-2.132-3.881c-.609-1.058-1.131-2.161-1.653-3.263h-.131c-.522,1.147-1.088,2.205-1.61,3.263l-2,3.881H0L7.222,10.584.174,0Z" transform="translate(161.755 24.361)" fill="#383837"/>
    <path id="Fill_14" data-name="Fill 14" d="M0,0,15.421,4.292v15.2L3.35,22.93H19.62V.133Z" transform="translate(141.718 25.898)" fill="#b2c20f"/>
    <path id="Fill_15" data-name="Fill 15" d="M6.735,6.343,36.915,0H8.659L0,.051V32.081H29.506L6.735,27.313Z" transform="translate(125.841 20.365)" fill="#a7bd35"/>
    <path id="Fill_16" data-name="Fill 16" d="M1.922,18.231l7.783,1.077,6.4-15.117L7.481,13.806,0,0,2.089,14.719Z" transform="translate(123.919 2.185)" fill="#b2c20f"/>
    <path id="Fill_17" data-name="Fill 17" d="M1.317,12.106l4.514.209L10.07,2.459,4.6,8.564,0,0,1.418,9.213Z" transform="translate(138.832 9.694)" fill="#b2c20f"/>
    <path id="Fill_18" data-name="Fill 18" d="M2.262,8.433l3.754.154L7.97.926l-3.5,5.091L0,0,2.056,6.53Z" transform="translate(149.088 12.237)" fill="#b2c20f"/>
    <path id="Fill_19" data-name="Fill 19" d="M6.118,20.824l7.353-.668L15.785,0,9.563,13.369,0,2.622,5.4,16.351Z" transform="translate(153.871)" fill="#b2c20f"/>
    <path id="Fill_20" data-name="Fill 20" d="M4.839,2.375A2.373,2.373,0,0,1,2.155,4.253,2.215,2.215,0,0,1,.016,1.892,2.376,2.376,0,0,1,2.7.014,2.213,2.213,0,0,1,4.839,2.375" transform="translate(129.546 7.38)" fill="#b2c20f"/>
    <path id="Fill_21" data-name="Fill 21" d="M3.5,1.721A1.719,1.719,0,0,1,1.559,3.079,1.6,1.6,0,0,1,.012,1.371,1.721,1.721,0,0,1,1.959.01,1.606,1.606,0,0,1,3.5,1.721" transform="translate(142.181 12.5)" fill="#b2c20f"/>
    <path id="Fill_22" data-name="Fill 22" d="M3.5,1.719a1.719,1.719,0,0,1-1.947,1.36A1.6,1.6,0,0,1,.012,1.369,1.721,1.721,0,0,1,1.957.01,1.6,1.6,0,0,1,3.5,1.719" transform="translate(151.76 12.629)" fill="#b2c20f"/>
    <path id="Fill_23" data-name="Fill 23" d="M4.839,2.375A2.378,2.378,0,0,1,2.151,4.254,2.218,2.218,0,0,1,.015,1.892,2.376,2.376,0,0,1,2.7.014,2.215,2.215,0,0,1,4.839,2.375" transform="translate(159.676 4.915)" fill="#b2c20f"/>
  </g>
</svg>
