<svg id="Group_25" data-name="Group 25" xmlns="http://www.w3.org/2000/svg" width="157.525" height="40.445" viewBox="0 0 157.525 40.445">
  <path id="Fill_1" data-name="Fill 1" d="M0,0V22.922H14.428V18.671H5.134V13.23h8.321V9.012H5.134V4.251h8.825V0Z" transform="translate(0 12.495)" fill="#383837"/>
  <g id="Group_24" data-name="Group 24" transform="translate(15.602)">
    <path id="Fill_2" data-name="Fill 2" d="M5.536,0,7.751,7.72a38.847,38.847,0,0,1,.939,4.047h.1c.268-1.36.537-2.619.906-4.047L11.811,0h5.368L11.073,16.631h-5.1L0,0Z" transform="translate(0 18.787)" fill="#383837"/>
    <path id="Fill_4" data-name="Fill 4" d="M8.757,17.345a11.031,11.031,0,0,1-3.718-.591A7.475,7.475,0,0,1,2.29,15.062,8.42,8.42,0,0,1,0,8.877,10.468,10.468,0,0,1,.493,5.711,8.865,8.865,0,0,1,2,2.857,7.751,7.751,0,0,1,8.288,0a7.639,7.639,0,0,1,3.379.718,6.216,6.216,0,0,1,2.266,1.888A9.551,9.551,0,0,1,15.6,8.3a12.482,12.482,0,0,1-.167,2.04H4.865A3.011,3.011,0,0,0,6.35,12.724,5.958,5.958,0,0,0,9.5,13.5a14.381,14.381,0,0,0,4.53-.68l.671,3.5A16.046,16.046,0,0,1,8.757,17.345ZM7.985,3.435A2.822,2.822,0,0,0,5.654,4.6,4.467,4.467,0,0,0,4.831,6.8h6.04a4.259,4.259,0,0,0-.562-2.155A2.56,2.56,0,0,0,7.985,3.435Z" transform="translate(18.085 18.412)" fill="#383837"/>
    <path id="Fill_6" data-name="Fill 6" d="M.134,5.68C.134,3.605.067,1.836,0,.374H4.429l.235,2.279h.1A5.988,5.988,0,0,1,9.831,0C13.186,0,15.7,2.245,15.7,7.142V17H10.6V7.788c0-2.142-.738-3.6-2.583-3.6A2.728,2.728,0,0,0,5.435,6.122a3.6,3.6,0,0,0-.2,1.293V17H.134Z" transform="translate(36.605 18.412)" fill="#383837"/>
    <path id="Fill_8" data-name="Fill 8" d="M7.18,0V4.761h3.657V8.57H7.18v6.02c0,2.006.47,2.925,2.013,2.925a8.24,8.24,0,0,0,1.51-.136l.034,3.911a9.878,9.878,0,0,1-3.322.442A5.265,5.265,0,0,1,3.59,20.3c-.94-.987-1.409-2.585-1.409-4.932V8.57H0V4.761H2.181V1.156Z" transform="translate(54.723 14.025)" fill="#383837"/>
    <path id="Fill_10" data-name="Fill 10" d="M0,3.435H8.791V0H0Z" transform="translate(67.472 24.772)" fill="#383837"/>
    <path id="Fill_12" data-name="Fill 12" d="M5.537,23.331A38.535,38.535,0,0,1,0,22.991V.476A40.034,40.034,0,0,1,6.61,0c3.3,0,5.106.35,6.677,1.293A4.985,4.985,0,0,1,16,5.782,4.852,4.852,0,0,1,15.1,8.638a5.922,5.922,0,0,1-2.818,2.04v.069A6.365,6.365,0,0,1,15.5,12.728a5.6,5.6,0,0,1,1.279,3.664,6.135,6.135,0,0,1-2.348,4.864,8.435,8.435,0,0,1-3.377,1.534A23.625,23.625,0,0,1,5.537,23.331Zm-.47-10.373V19.42a16.1,16.1,0,0,0,1.98.068,5.613,5.613,0,0,0,3.049-.744,2.862,2.862,0,0,0,1.313-2.555,2.753,2.753,0,0,0-1.342-2.483,6.221,6.221,0,0,0-3.254-.748ZM7.247,3.775a13.645,13.645,0,0,0-2.181.136v5.34H6.745c2.584,0,4.127-1.055,4.127-2.823C10.872,4.717,9.584,3.775,7.247,3.775Z" transform="translate(79.483 12.325)" fill="#383837"/>
    <path id="Fill_13" data-name="Fill 13" d="M5.838,0,7.449,2.755c.47.85.906,1.7,1.342,2.483h.067c.436-.884.839-1.734,1.275-2.55L11.576,0h5.536l-5.4,7.924,5.469,8.706H11.408L9.764,13.638c-.47-.816-.872-1.666-1.275-2.517h-.1c-.4.884-.839,1.7-1.241,2.517L5.6,16.631H0L5.57,8.162.134,0Z" transform="translate(124.744 18.787)" fill="#383837"/>
    <path id="Fill_14" data-name="Fill 14" d="M0,0,11.892,3.31V15.029L2.583,17.684H15.131V.1Z" transform="translate(109.291 19.972)" fill="#b2c20f"/>
    <path id="Fill_15" data-name="Fill 15" d="M5.194,4.892,28.469,0H6.677L0,.04v24.7H22.755L5.194,21.064Z" transform="translate(97.047 15.705)" fill="#a7bd35"/>
    <path id="Fill_16" data-name="Fill 16" d="M1.482,14.06l6,.83L12.421,3.232,5.77,10.647,0,0,1.611,11.351Z" transform="translate(95.565 1.685)" fill="#b2c20f"/>
    <path id="Fill_17" data-name="Fill 17" d="M1.016,9.336,4.5,9.5,7.766,1.9,3.547,6.6,0,0,1.093,7.105Z" transform="translate(107.066 7.476)" fill="#b2c20f"/>
    <path id="Fill_18" data-name="Fill 18" d="M1.745,6.5l2.895.119L6.146.714,3.45,4.64,0,0,1.586,5.036Z" transform="translate(114.975 9.437)" fill="#b2c20f"/>
    <path id="Fill_19" data-name="Fill 19" d="M4.718,16.06l5.671-.515L12.173,0l-4.8,10.31L0,2.022,4.164,12.61Z" transform="translate(118.663)" fill="#b2c20f"/>
    <path id="Fill_20" data-name="Fill 20" d="M3.732,1.832A1.83,1.83,0,0,1,1.662,3.28,1.708,1.708,0,0,1,.012,1.459,1.832,1.832,0,0,1,2.084.011,1.707,1.707,0,0,1,3.732,1.832" transform="translate(99.905 5.692)" fill="#b2c20f"/>
    <path id="Fill_21" data-name="Fill 21" d="M2.7,1.327A1.326,1.326,0,0,1,1.2,2.375,1.237,1.237,0,0,1,.009,1.057,1.327,1.327,0,0,1,1.511.008,1.239,1.239,0,0,1,2.7,1.327" transform="translate(109.649 9.64)" fill="#b2c20f"/>
    <path id="Fill_22" data-name="Fill 22" d="M2.7,1.326A1.325,1.325,0,0,1,1.2,2.374,1.236,1.236,0,0,1,.009,1.056,1.327,1.327,0,0,1,1.509.008,1.237,1.237,0,0,1,2.7,1.326" transform="translate(117.035 9.74)" fill="#b2c20f"/>
    <path id="Fill_23" data-name="Fill 23" d="M3.732,1.832A1.834,1.834,0,0,1,1.659,3.281,1.71,1.71,0,0,1,.012,1.459,1.832,1.832,0,0,1,2.084.011,1.708,1.708,0,0,1,3.732,1.832" transform="translate(123.14 3.79)" fill="#b2c20f"/>
  </g>
</svg>
