<svg id="instagram-seeklogo.com" xmlns="http://www.w3.org/2000/svg" width="36.672" height="36.672" viewBox="0 0 36.672 36.672">
  <path id="Pfad_3812" data-name="Pfad 3812" d="M18.336,3.3c4.9,0,5.476.019,7.409.107a10.149,10.149,0,0,1,3.4.631,5.682,5.682,0,0,1,2.108,1.372A5.681,5.681,0,0,1,32.63,7.522a10.147,10.147,0,0,1,.631,3.4c.088,1.934.107,2.513.107,7.409s-.019,5.476-.107,7.409a10.147,10.147,0,0,1-.631,3.4,6.072,6.072,0,0,1-3.48,3.48,10.147,10.147,0,0,1-3.4.631c-1.933.088-2.513.107-7.409.107s-5.476-.019-7.409-.107a10.146,10.146,0,0,1-3.4-.631,5.68,5.68,0,0,1-2.108-1.372A5.681,5.681,0,0,1,4.042,29.15a10.146,10.146,0,0,1-.631-3.4c-.088-1.934-.107-2.513-.107-7.409s.019-5.476.107-7.409a10.147,10.147,0,0,1,.631-3.4A5.681,5.681,0,0,1,5.414,5.414,5.681,5.681,0,0,1,7.522,4.042a10.148,10.148,0,0,1,3.4-.631C12.86,3.322,13.44,3.3,18.336,3.3m0-3.3c-4.98,0-5.6.021-7.56.11A13.459,13.459,0,0,0,6.325.963,8.988,8.988,0,0,0,3.077,3.078,8.988,8.988,0,0,0,.963,6.325,13.459,13.459,0,0,0,.11,10.776C.021,12.732,0,13.356,0,18.336s.021,5.6.11,7.56a13.459,13.459,0,0,0,.852,4.451,8.988,8.988,0,0,0,2.115,3.248,8.988,8.988,0,0,0,3.248,2.115,13.459,13.459,0,0,0,4.451.852c1.956.089,2.58.11,7.56.11s5.6-.021,7.56-.11a13.459,13.459,0,0,0,4.451-.852,9.376,9.376,0,0,0,5.363-5.363,13.459,13.459,0,0,0,.852-4.451c.089-1.956.11-2.58.11-7.56s-.021-5.6-.11-7.56a13.459,13.459,0,0,0-.852-4.451,8.988,8.988,0,0,0-2.115-3.248A8.988,8.988,0,0,0,30.347.963,13.459,13.459,0,0,0,25.9.11C23.94.021,23.316,0,18.336,0Zm0,8.92a9.416,9.416,0,1,0,9.416,9.416A9.416,9.416,0,0,0,18.336,8.92Zm0,15.528a6.112,6.112,0,1,1,6.112-6.112A6.112,6.112,0,0,1,18.336,24.448Zm11.988-15.9a2.2,2.2,0,1,1-2.2-2.2A2.2,2.2,0,0,1,30.324,8.548Z" transform="translate(0 0)" fill="#4A586C"/>
</svg>
