<svg xmlns="http://www.w3.org/2000/svg" xmlns:xlink="http://www.w3.org/1999/xlink" width="30.761" height="30.822" viewBox="0 0 30.761 30.822">
  <defs>
    <clipPath id="clip-path">
      <path id="Pfad_3793" data-name="Pfad 3793" d="M30.872,3.076v4.64A3.093,3.093,0,0,1,27.5,10.809,30.608,30.608,0,0,1,14.153,6.061a30.16,30.16,0,0,1-9.28-9.28A30.608,30.608,0,0,1,.124-16.628a3.093,3.093,0,0,1,.8-2.364A3.094,3.094,0,0,1,3.2-20H7.84a3.094,3.094,0,0,1,3.093,2.66,19.859,19.859,0,0,0,1.083,4.346,3.093,3.093,0,0,1-.7,3.263L9.358-7.766a24.746,24.746,0,0,0,9.28,9.28L20.6-.45a3.093,3.093,0,0,1,3.263-.7A19.859,19.859,0,0,0,28.211-.064a3.093,3.093,0,0,1,2.661,3.14Z" transform="translate(-0.112 20)" fill="none"/>
    </clipPath>
    <clipPath id="clip-path-2">
      <path id="Pfad_3792" data-name="Pfad 3792" d="M-1065,817.967H1103.4V-557H-1065Z" transform="translate(1065 557)" fill="none"/>
    </clipPath>
  </defs>
  <g id="Gruppe_1283" data-name="Gruppe 1283" transform="translate(-0.112 20)">
    <g id="Gruppe_1282" data-name="Gruppe 1282" transform="translate(0.112 -20)" clip-path="url(#clip-path)">
      <g id="Gruppe_1281" data-name="Gruppe 1281" transform="translate(-1647.349 -830.548)" clip-path="url(#clip-path-2)">
        <path id="Pfad_3791" data-name="Pfad 3791" d="M-4.888-25H41.339V21.288H-4.888Z" transform="translate(1644.504 847.815)" fill="#4A586C"/>
      </g>
    </g>
  </g>
</svg>
