<svg id="Group_3" data-name="Group 3" xmlns="http://www.w3.org/2000/svg" xmlns:xlink="http://www.w3.org/1999/xlink" width="184" height="136" viewBox="0 0 184 136">
  <defs>
    <clipPath id="clip-path">
      <path id="Clip_2" data-name="Clip 2" d="M0,0H184V136H0Z" fill="none"/>
    </clipPath>
  </defs>
  <path id="Clip_2-2" data-name="Clip 2" d="M0,0H184V136H0Z" fill="none"/>
  <g id="Group_3-2" data-name="Group 3" clip-path="url(#clip-path)">
    <path id="Fill_1" data-name="Fill 1" d="M118.665,136h0l-13.6-21.444a103.007,103.007,0,0,0,15.752-8.4,67.7,67.7,0,0,0,12.218-10.112,42.643,42.643,0,0,0,7.9-11.583,31.16,31.16,0,0,0,2.808-12.81c0-8.472-2.367-15.159-7.45-21.047-4.6-5.332-11.495-10.13-22.345-15.554V31.387A30.474,30.474,0,0,1,133.364,2.4a35.142,35.142,0,0,1,13-2.4,36.09,36.09,0,0,1,14.7,3.008A33.85,33.85,0,0,1,173.022,11.9C180.2,20.194,184,32.177,184,46.556c0,26.175-11.691,45.913-21.5,57.862a107.748,107.748,0,0,1-21.063,19.59A94.492,94.492,0,0,1,118.666,136ZM13.6,136h0L0,114.556a103,103,0,0,0,15.752-8.4A67.694,67.694,0,0,0,27.971,96.048a42.642,42.642,0,0,0,7.9-11.583,31.161,31.161,0,0,0,2.808-12.81c0-8.472-2.367-15.159-7.45-21.047-4.6-5.332-11.494-10.129-22.344-15.554V31.387A30.474,30.474,0,0,1,28.3,2.4,35.143,35.143,0,0,1,41.3,0,36.09,36.09,0,0,1,56,3.008,33.851,33.851,0,0,1,67.958,11.9c7.182,8.293,10.978,20.276,10.978,34.655,0,26.175-11.691,45.913-21.5,57.862a107.748,107.748,0,0,1-21.063,19.59A94.494,94.494,0,0,1,13.6,136Z" fill="#ffeff4"/>
  </g>
</svg>
