<svg xmlns="http://www.w3.org/2000/svg" width="50.186" height="23.502" viewBox="0 0 50.186 23.502">
  <g id="Vereinigungsmenge_5" data-name="Vereinigungsmenge 5" transform="translate(-8302.998 -12989.999)" fill="none">
    <path d="M8327,13013.5h-12.251a11.751,11.751,0,0,1,0-23.5h26.684a11.751,11.751,0,0,1,0,23.5Z" stroke="none"/>
    <path d="M 8341.4326171875 13011.5009765625 C 8346.8095703125 13011.5009765625 8351.18359375 13007.126953125 8351.18359375 13001.75 C 8351.18359375 12996.373046875 8346.8095703125 12991.9990234375 8341.4326171875 12991.9990234375 L 8314.7490234375 12991.9990234375 C 8309.3720703125 12991.9990234375 8304.998046875 12996.373046875 8304.998046875 13001.75 C 8304.998046875 13007.126953125 8309.3720703125 13011.5009765625 8314.7490234375 13011.5009765625 L 8341.4326171875 13011.5009765625 M 8341.4326171875 13013.5009765625 L 8314.7490234375 13013.5009765625 C 8308.259765625 13013.5009765625 8302.998046875 13008.2392578125 8302.998046875 13001.75 C 8302.998046875 12995.2607421875 8308.259765625 12989.9990234375 8314.7490234375 12989.9990234375 L 8341.4326171875 12989.9990234375 C 8347.921875 12989.9990234375 8353.18359375 12995.2607421875 8353.18359375 13001.75 C 8353.18359375 13008.2392578125 8347.921875 13013.5009765625 8341.4326171875 13013.5009765625 Z" stroke="none" fill="#4a6c56"/>
  </g>
</svg>
