<svg xmlns="http://www.w3.org/2000/svg" width="228.96" height="67.848" viewBox="0 0 228.96 67.848">
  <g id="Gruppe_1442" data-name="Gruppe 1442" transform="translate(-1443.684 -527.414)">
    <g id="Gruppe_1441" data-name="Gruppe 1441">
      <path id="Pfad_4050" data-name="Pfad 4050" d="M21.672,37h-5V26.272H7.992V37h-5V11.368h5V21.844h8.676V11.368h5Zm12.42,0h-5V11.368h5Zm24.3,0H41.508V11.368H58.392v4.464H46.512v6.012H56.628v4.464H46.512v6.228h11.88Zm25.74,0h-5.8l-5-10.224h-3.6V37h-5V11.368H74.772a8.16,8.16,0,0,1,6.066,2.268,7.615,7.615,0,0,1,2.25,5.58A6.808,6.808,0,0,1,81.756,23.5a7.217,7.217,0,0,1-3.348,2.448ZM77.076,21.664a3.185,3.185,0,0,0,1.008-2.448,3.185,3.185,0,0,0-1.008-2.448,3.708,3.708,0,0,0-2.628-.936H69.732V22.6h4.716A3.708,3.708,0,0,0,77.076,21.664Zm39.312-5.832h-11.88v6.3h10.116V26.6H104.508V37h-5V11.368h16.884ZM127.188,37h-5V11.368h5Zm27.036,0H149.76L139.608,21.268V37h-5V11.368h4.464l10.152,15.7v-15.7h5Zm26.028-14.148v3.78q0,.288-.036,1.206a9.476,9.476,0,0,1-.108,1.278q-.072.36-.18,1.116a4.726,4.726,0,0,1-.306,1.206l-.468,1.062a5.193,5.193,0,0,1-.648,1.1,10.261,10.261,0,0,1-.846.954A9.147,9.147,0,0,1,170.892,37H161.64V11.368h9.252a9.147,9.147,0,0,1,6.768,2.448,10.261,10.261,0,0,1,.846.954,5.371,5.371,0,0,1,.648,1.08q.27.594.468,1.026a4.41,4.41,0,0,1,.306,1.17q.108.738.18,1.08a8.786,8.786,0,0,1,.108,1.242q.036.9.036,1.17Zm-5,1.224a35.135,35.135,0,0,0-.2-4.446,4.377,4.377,0,0,0-.882-2.214,4.559,4.559,0,0,0-3.744-1.584h-3.78v16.7h3.78a4.559,4.559,0,0,0,3.744-1.584,4.468,4.468,0,0,0,.882-2.286A37.846,37.846,0,0,0,175.248,24.076ZM203.688,37H186.8V11.368h16.884v4.464h-11.88v6.012h10.116v4.464H191.808v6.228h11.88Zm25.956,0H225.18L215.028,21.268V37h-5V11.368h4.464l10.152,15.7v-15.7h5ZM19.548,71.44a6.809,6.809,0,0,1-2.682,5.706,10.84,10.84,0,0,1-6.822,2.07,16.189,16.189,0,0,1-5.292-.774,10.677,10.677,0,0,1-4.068-2.61l3.24-3.24a8.38,8.38,0,0,0,6.192,2.16q4.536,0,4.536-3.168a2.845,2.845,0,0,0-.792-2.16,4.435,4.435,0,0,0-2.268-.9l-3.1-.432a8.657,8.657,0,0,1-4.968-2.124,6.811,6.811,0,0,1-1.836-5.04A7.172,7.172,0,0,1,4.1,55.294a9.457,9.457,0,0,1,6.516-2.142A11.419,11.419,0,0,1,18.9,56.14l-3.168,3.132a7.287,7.287,0,0,0-5.256-1.764,4.257,4.257,0,0,0-2.934.918,2.981,2.981,0,0,0-1.026,2.322,2.425,2.425,0,0,0,.756,1.836,4.329,4.329,0,0,0,2.376,1.008l3.024.432a9.036,9.036,0,0,1,4.9,1.98A7.126,7.126,0,0,1,19.548,71.44ZM30.708,79h-5V53.368h5Zm24.3,0H38.124V53.368H55.008v4.464H43.128v6.012H53.244v4.464H43.128v6.228h11.88Zm34.6-8.784a8.452,8.452,0,0,1-2.7,6.5,10.308,10.308,0,0,1-13.464,0,8.452,8.452,0,0,1-2.7-6.5V53.368h5V70.036a4.835,4.835,0,0,0,1.188,3.456,4.239,4.239,0,0,0,3.24,1.26,4.3,4.3,0,0,0,3.258-1.26,4.792,4.792,0,0,0,1.206-3.456V53.368H89.6ZM116.244,79H111.78L101.628,63.268V79h-5V53.368h4.464l10.152,15.7v-15.7h5Zm23.976-7.56a6.809,6.809,0,0,1-2.682,5.706,10.84,10.84,0,0,1-6.822,2.07,16.189,16.189,0,0,1-5.292-.774,10.677,10.677,0,0,1-4.068-2.61l3.24-3.24a8.38,8.38,0,0,0,6.192,2.16q4.536,0,4.536-3.168a2.845,2.845,0,0,0-.792-2.16,4.435,4.435,0,0,0-2.268-.9l-3.1-.432a8.657,8.657,0,0,1-4.968-2.124,6.811,6.811,0,0,1-1.836-5.04,7.172,7.172,0,0,1,2.412-5.634,9.457,9.457,0,0,1,6.516-2.142,11.419,11.419,0,0,1,8.28,2.988L136.4,59.272a7.287,7.287,0,0,0-5.256-1.764,4.257,4.257,0,0,0-2.934.918,2.981,2.981,0,0,0-1.026,2.322,2.425,2.425,0,0,0,.756,1.836,4.329,4.329,0,0,0,2.376,1.008l3.024.432a9.036,9.036,0,0,1,4.9,1.98A7.126,7.126,0,0,1,140.22,71.44Z" transform="translate(1443 516.046)" fill="#4a6c56"/>
    </g>
    <g id="Gruppe_1377" data-name="Gruppe 1377" transform="translate(1605 590.008) rotate(-90)">
      <line id="Linie_2" data-name="Linie 2" y2="23" transform="translate(7.75)" fill="none" stroke="#4a6c56" stroke-linecap="round" stroke-width="3"/>
      <line id="Linie_3" data-name="Linie 3" y1="7.5" x2="7.5" transform="translate(7.75 16.5)" fill="none" stroke="#4a6c56" stroke-linecap="round" stroke-width="3"/>
      <line id="Linie_4" data-name="Linie 4" x1="7.5" y1="7.5" transform="translate(0 16.5)" fill="none" stroke="#4a6c56" stroke-linecap="round" stroke-width="3"/>
    </g>
  </g>
</svg>
